<svg id="visual" viewBox="0 0 900 600" width="900" height="600" xmlns="http://www.w3.org/2000/svg" xmlns:xlink="http://www.w3.org/1999/xlink" version="1.1"><rect x="0" y="0" width="900" height="600" fill="#FFFFFF"></rect><defs><linearGradient id="grad1_0" x1="33.3%" y1="0%" x2="100%" y2="100%"><stop offset="20%" stop-color="#ffffff" stop-opacity="1"></stop><stop offset="80%" stop-color="#ffffff" stop-opacity="1"></stop></linearGradient></defs><defs><linearGradient id="grad2_0" x1="0%" y1="0%" x2="66.7%" y2="100%"><stop offset="20%" stop-color="#ffffff" stop-opacity="1"></stop><stop offset="80%" stop-color="#ffffff" stop-opacity="1"></stop></linearGradient></defs><g transform="translate(900, 0)"><path d="M0 351.5C-33.6 339.8 -67.1 328.1 -103.5 318.6C-139.9 309.2 -179.1 302 -202.2 278.3C-225.3 254.6 -232.3 214.4 -254.8 185.2C-277.4 155.9 -315.6 137.7 -334.3 108.6C-353.1 79.6 -352.3 39.8 -351.5 0L0 0Z" fill="#009473"></path></g><g transform="translate(0, 600)"><path d="M0 -351.5C33.8 -338.7 67.6 -325.9 102.9 -316.7C138.2 -307.5 175.1 -301.9 206.6 -284.4C238.2 -266.9 264.4 -237.5 283.2 -205.7C301.9 -173.9 313.2 -139.8 323.4 -105.1C333.5 -70.4 342.5 -35.2 351.5 0L0 0Z" fill="#009473"></path></g></svg>